<svg xmlns="http://www.w3.org/2000/svg" viewBox="0 0 512 512" width="512" height="512">
  <defs>
    <linearGradient id="badge-bg" x1="0%" y1="0%" x2="100%" y2="100%">
      <stop offset="0%" stop-color="#1B2838"/>
      <stop offset="100%" stop-color="#0D1B2A"/>
    </linearGradient>
    <linearGradient id="flow-gradient" x1="256" y1="306" x2="256" y2="206"
      gradientUnits="userSpaceOnUse">
      <stop offset="0%" stop-color="#D97706"/>
      <stop offset="50%" stop-color="#7C3AED"/>
      <stop offset="100%" stop-color="#14B8A6"/>
    </linearGradient>
  </defs>
  <rect x="20" y="20" width="472" height="472" rx="116" fill="url(#badge-bg)"/>
  <ellipse cx="256" cy="240" rx="200" ry="180" fill="#7C3AED" opacity="0.07"/>
  <path d="M 82.8,356.0 A 200,200 0 1,1 429.2,356.0" fill="none"
    stroke="#8B9DB5" stroke-opacity="0.25" stroke-width="12"
    stroke-linecap="round"/>
  <path d="M 82.8,356.0 A 200,200 0 1,1 441.4,181.1" fill="none"
    stroke="#14B8A6" stroke-opacity="0.8" stroke-width="12"
    stroke-linecap="round"/>
  <circle cx="441.4" cy="181.1" r="10" fill="#FBBF24"/>
  <path d="M 256.0,96.0 L 394.6,176.0 L 394.6,336.0 L 256.0,416.0 L 117.4,336.0 L 117.4,176.0 Z" fill="none"
    stroke="#7C3AED" stroke-opacity="0.7" stroke-width="10"/>
  <path d="M 256.0,146.0 L 351.3,201.0 L 351.3,311.0 L 256.0,366.0 L 160.7,311.0 L 160.7,201.0 Z" fill="none"
    stroke="#8B9DB5" stroke-opacity="0.4" stroke-width="6"/>
  <rect x="136" y="290" width="240" height="16" rx="8" fill="#D97706" opacity="0.78"/>
  <rect x="136" y="248" width="240" height="16" rx="8" fill="#7C3AED" opacity="0.86"/>
  <rect x="136" y="206" width="240" height="16" rx="8" fill="#14B8A6" opacity="0.94"/>
  <path d="M 322 304 L 336 290 L 350 304" fill="none"
    stroke="#D97706" stroke-width="6"    stroke-linecap="round" stroke-linejoin="round"/>
  <path d="M 322 262 L 336 248 L 350 262" fill="none"
    stroke="#7C3AED" stroke-width="6"    stroke-linecap="round" stroke-linejoin="round"/>
  <path d="M 322 220 L 336 206 L 350 220" fill="none"
    stroke="#14B8A6" stroke-width="6"    stroke-linecap="round" stroke-linejoin="round"/>
  <circle cx="256.0" cy="146.0" r="6" fill="#FBBF24"/>
  <circle cx="351.3" cy="201.0" r="6" fill="#FBBF24"/>
  <circle cx="351.3" cy="311.0" r="6" fill="#FBBF24"/>
  <circle cx="256.0" cy="366.0" r="6" fill="#FBBF24"/>
  <circle cx="160.7" cy="311.0" r="6" fill="#FBBF24"/>
  <circle cx="160.7" cy="201.0" r="6" fill="#FBBF24"/>
</svg>